<?xml version="1.0" encoding="UTF-8"?>
<svg id="Layer_2" data-name="Layer 2" xmlns="http://www.w3.org/2000/svg" xmlns:xlink="http://www.w3.org/1999/xlink" viewBox="0 0 453.74 453.58">
  <defs>
    <style>
      .cls-1, .cls-2, .cls-3 {
        fill: none;
      }

      .cls-2 {
        stroke-linejoin: round;
        stroke-width: 2.85px;
      }

      .cls-2, .cls-3 {
        stroke: #ff6b5c;
        stroke-linecap: square;
      }

      .cls-4 {
        clip-path: url(#clippath-17);
      }

      .cls-5 {
        clip-path: url(#clippath-19);
      }

      .cls-6 {
        clip-path: url(#clippath-11);
      }

      .cls-7 {
        clip-path: url(#clippath-16);
      }

      .cls-8 {
        clip-path: url(#clippath-18);
      }

      .cls-9 {
        clip-path: url(#clippath-10);
      }

      .cls-10 {
        clip-path: url(#clippath-15);
      }

      .cls-11 {
        clip-path: url(#clippath-13);
      }

      .cls-12 {
        clip-path: url(#clippath-14);
      }

      .cls-13 {
        clip-path: url(#clippath-12);
      }

      .cls-14 {
        clip-path: url(#clippath-31);
      }

      .cls-15 {
        clip-path: url(#clippath-32);
      }

      .cls-16 {
        clip-path: url(#clippath-33);
      }

      .cls-17 {
        clip-path: url(#clippath-34);
      }

      .cls-18 {
        clip-path: url(#clippath-35);
      }

      .cls-19 {
        clip-path: url(#clippath-39);
      }

      .cls-20 {
        clip-path: url(#clippath-30);
      }

      .cls-21 {
        clip-path: url(#clippath-36);
      }

      .cls-22 {
        clip-path: url(#clippath-37);
      }

      .cls-23 {
        clip-path: url(#clippath-38);
      }

      .cls-24 {
        clip-path: url(#clippath-27);
      }

      .cls-25 {
        clip-path: url(#clippath-29);
      }

      .cls-26 {
        clip-path: url(#clippath-26);
      }

      .cls-27 {
        clip-path: url(#clippath-28);
      }

      .cls-28 {
        clip-path: url(#clippath-20);
      }

      .cls-29 {
        clip-path: url(#clippath-21);
      }

      .cls-30 {
        clip-path: url(#clippath-22);
      }

      .cls-31 {
        clip-path: url(#clippath-23);
      }

      .cls-32 {
        clip-path: url(#clippath-24);
      }

      .cls-33 {
        clip-path: url(#clippath-25);
      }

      .cls-34 {
        clip-path: url(#clippath-40);
      }

      .cls-35 {
        clip-path: url(#clippath-1);
      }

      .cls-36 {
        clip-path: url(#clippath-3);
      }

      .cls-37 {
        clip-path: url(#clippath-4);
      }

      .cls-38 {
        clip-path: url(#clippath-2);
      }

      .cls-39 {
        clip-path: url(#clippath-7);
      }

      .cls-40 {
        clip-path: url(#clippath-6);
      }

      .cls-41 {
        clip-path: url(#clippath-9);
      }

      .cls-42 {
        clip-path: url(#clippath-8);
      }

      .cls-43 {
        clip-path: url(#clippath-5);
      }

      .cls-44 {
        fill: #fff;
      }

      .cls-3 {
        stroke-miterlimit: 10;
        stroke-width: 1.96px;
      }

      .cls-45 {
        fill: #fafbfd;
      }

      .cls-46 {
        clip-path: url(#clippath);
      }
    </style>
    <clipPath id="clippath">
      <rect class="cls-1" width="453.74" height="453.58"/>
    </clipPath>
    <clipPath id="clippath-1">
      <rect class="cls-1" x="2.33" y="2.33" width="449.08" height="448.92"/>
    </clipPath>
    <clipPath id="clippath-2">
      <rect class="cls-1" x="2.33" y="2.33" width="449.08" height="448.92"/>
    </clipPath>
    <clipPath id="clippath-3">
      <rect class="cls-1" x="2.33" y="2.33" width="449.08" height="448.92"/>
    </clipPath>
    <clipPath id="clippath-4">
      <rect class="cls-1" x="2.33" y="2.33" width="449.08" height="448.92"/>
    </clipPath>
    <clipPath id="clippath-5">
      <rect class="cls-1" x="2.33" y="2.33" width="449.08" height="448.92"/>
    </clipPath>
    <clipPath id="clippath-6">
      <rect class="cls-1" x="2.33" y="2.33" width="449.08" height="448.92"/>
    </clipPath>
    <clipPath id="clippath-7">
      <rect class="cls-1" x="2.33" y="2.33" width="449.08" height="448.92"/>
    </clipPath>
    <clipPath id="clippath-8">
      <rect class="cls-1" x="2.33" y="2.33" width="449.08" height="448.92"/>
    </clipPath>
    <clipPath id="clippath-9">
      <rect class="cls-1" x="2.33" y="2.33" width="449.08" height="448.92"/>
    </clipPath>
    <clipPath id="clippath-10">
      <rect class="cls-1" x="2.33" y="2.33" width="449.08" height="448.92"/>
    </clipPath>
    <clipPath id="clippath-11">
      <rect class="cls-1" x="2.33" y="2.33" width="449.08" height="448.92"/>
    </clipPath>
    <clipPath id="clippath-12">
      <rect class="cls-1" x="2.33" y="2.33" width="449.08" height="448.92"/>
    </clipPath>
    <clipPath id="clippath-13">
      <rect class="cls-1" x="2.33" y="2.33" width="449.08" height="448.92"/>
    </clipPath>
    <clipPath id="clippath-14">
      <rect class="cls-1" x="2.33" y="2.33" width="449.08" height="448.92"/>
    </clipPath>
    <clipPath id="clippath-15">
      <rect class="cls-1" x="2.33" y="2.33" width="449.08" height="448.92"/>
    </clipPath>
    <clipPath id="clippath-16">
      <rect class="cls-1" x="2.33" y="2.33" width="449.08" height="448.92"/>
    </clipPath>
    <clipPath id="clippath-17">
      <rect class="cls-1" x="2.33" y="2.33" width="449.08" height="448.92"/>
    </clipPath>
    <clipPath id="clippath-18">
      <rect class="cls-1" x="2.33" y="2.33" width="449.08" height="448.92"/>
    </clipPath>
    <clipPath id="clippath-19">
      <rect class="cls-1" x="2.33" y="2.33" width="449.08" height="448.92"/>
    </clipPath>
    <clipPath id="clippath-20">
      <rect class="cls-1" x="2.33" y="2.33" width="449.08" height="448.92"/>
    </clipPath>
    <clipPath id="clippath-21">
      <rect class="cls-1" x="2.33" y="2.33" width="449.08" height="448.92"/>
    </clipPath>
    <clipPath id="clippath-22">
      <rect class="cls-1" x="2.33" y="2.33" width="449.08" height="448.92"/>
    </clipPath>
    <clipPath id="clippath-23">
      <rect class="cls-1" x="2.33" y="2.33" width="449.08" height="448.92"/>
    </clipPath>
    <clipPath id="clippath-24">
      <rect class="cls-1" x="2.33" y="2.33" width="449.08" height="448.92"/>
    </clipPath>
    <clipPath id="clippath-25">
      <rect class="cls-1" x="2.33" y="2.33" width="449.08" height="448.92"/>
    </clipPath>
    <clipPath id="clippath-26">
      <rect class="cls-1" x="2.33" y="2.33" width="449.08" height="448.92"/>
    </clipPath>
    <clipPath id="clippath-27">
      <rect class="cls-1" x="2.33" y="2.33" width="449.08" height="448.92"/>
    </clipPath>
    <clipPath id="clippath-28">
      <rect class="cls-1" x="2.33" y="2.33" width="449.08" height="448.92"/>
    </clipPath>
    <clipPath id="clippath-29">
      <rect class="cls-1" x="2.33" y="2.33" width="449.08" height="448.92"/>
    </clipPath>
    <clipPath id="clippath-30">
      <rect class="cls-1" x="2.33" y="2.33" width="449.08" height="448.92"/>
    </clipPath>
    <clipPath id="clippath-31">
      <rect class="cls-1" x="2.33" y="2.33" width="449.08" height="448.92"/>
    </clipPath>
    <clipPath id="clippath-32">
      <rect class="cls-1" x="2.33" y="2.33" width="449.08" height="448.92"/>
    </clipPath>
    <clipPath id="clippath-33">
      <rect class="cls-1" x="2.33" y="2.33" width="449.08" height="448.92"/>
    </clipPath>
    <clipPath id="clippath-34">
      <rect class="cls-1" x="2.33" y="2.33" width="449.08" height="448.92"/>
    </clipPath>
    <clipPath id="clippath-35">
      <rect class="cls-1" x="2.33" y="2.33" width="449.08" height="448.92"/>
    </clipPath>
    <clipPath id="clippath-36">
      <rect class="cls-1" x="2.33" y="2.33" width="449.08" height="448.92"/>
    </clipPath>
    <clipPath id="clippath-37">
      <rect class="cls-1" x="2.33" y="2.33" width="449.08" height="448.92"/>
    </clipPath>
    <clipPath id="clippath-38">
      <rect class="cls-1" x="2.33" y="2.33" width="449.08" height="448.92"/>
    </clipPath>
    <clipPath id="clippath-39">
      <rect class="cls-1" x="2.33" y="2.33" width="449.08" height="448.92"/>
    </clipPath>
    <clipPath id="clippath-40">
      <rect class="cls-1" x="2.33" y="2.33" width="449.08" height="448.92"/>
    </clipPath>
  </defs>
  <g id="Layer_1-2" data-name="Layer 1">
    <g class="cls-46">
      <rect class="cls-44" width="453.74" height="453.58"/>
      <rect class="cls-45" x="2.33" y="2.33" width="449.08" height="448.92"/>
      <g class="cls-35">
        <polyline class="cls-2" points="7.64 455.2 9.63 432.93 15.47 371.15 16.18 357.55 16.39 346.23 16.23 334.86 15.64 323.32 14.62 311.52 13.18 299.38 10.98 284.22 7.43 262.81 2.12 230.9 -.58 212.31 -1.62 204.22"/>
      </g>
      <g class="cls-38">
        <polyline class="cls-2" points="34.1 455.2 36.19 440.01 39.16 421.03 44.84 385.46 46.17 374.85 47.11 364.37 47.52 356.02 47.57 347.64 47.23 339.18 46.48 330.57 45.32 321.76 43.75 312.67 41.26 300.85 37.62 285.83 26.15 240.42 22.7 224.56 20.18 211.36 17.96 197.75 16.09 183.8 14.61 169.59 13.54 155.2 12.88 140.71 12.6 126.21 12.67 111.76 13.17 93.87 14.04 76.25 15.42 55.58 18.04 22.34 19.08 9.47"/>
      </g>
      <g class="cls-36">
        <polyline class="cls-2" points="61.53 455.2 64.26 442.01 67.45 428.27 72.93 406.59 76.91 390.23 78.93 380.33 80.17 372.53 80.99 364.79 81.29 359 81.3 353.18 81 347.31 80.37 341.37 79.42 335.32 78.12 329.14 75.89 320.64 73.12 311.77 68.97 300.04 60.13 276.78 53.79 259.49 49.61 247.13 45.63 234.13 42.85 223.97 40.3 213.48 38 202.72 36.01 191.7 34.33 180.48 32.98 169.1 31.96 157.62 31.28 146.06 30.91 134.5 30.84 122.96 31.15 107.67 31.87 92.59 32.9 77.75 34.51 59.62 37.08 35.08 39.7 11.54"/>
      </g>
      <g class="cls-37">
        <polyline class="cls-2" points="89.88 455.2 92.6 445.81 96.2 434.55 100.74 421.59 110.83 393.41 113.16 385.78 115.07 378.29 116.15 372.74 116.9 367.23 117.27 361.73 117.25 356.23 116.8 350.71 115.92 345.14 114.58 339.49 112.8 333.74 110.59 327.83 107.95 321.75 103.83 313.29 97.85 302 84.03 276.38 78.25 264.78 73.98 255.55 69.86 245.84 65.95 235.69 62.31 225.1 59.02 214.12 56.12 202.78 53.64 191.14 51.61 179.26 50.04 167.2 48.93 155.03 48.27 142.8 48.03 130.58 48.18 118.42 48.67 106.36 49.45 94.46 50.87 78.86 52.6 63.64 55.55 41.57 59.63 13.55"/>
      </g>
      <g class="cls-43">
        <polyline class="cls-2" points="118.79 455.2 122.15 446.36 126.86 435.14 132.78 422.16 145.08 395.65 148.22 387.87 150.23 382.13 151.89 376.47 153.15 370.89 153.96 365.37 154.28 359.91 154.08 354.51 153.65 350.93 152.97 347.36 152.05 343.8 150.2 338.45 147.79 333.06 144.85 327.61 141.39 322.03 136.05 314.32 128.35 304.06 114.34 285.55 106.95 275.05 101.42 266.55 95.99 257.49 90.77 247.86 87.44 241.12 84.28 234.14 81.29 226.92 78.5 219.49 75.94 211.84 73.61 204.01 71.53 196.01 69.72 187.86 68.17 179.59 66.89 171.22 65.87 162.78 65.12 154.28 64.62 145.76 64.34 132.98 64.56 120.26 65.22 107.65 66.27 95.23 67.65 83.01 69.85 67.11 73 47.9 77.66 22.28 78.98 15.23"/>
      </g>
      <g class="cls-40">
        <polyline class="cls-2" points="147.55 455.2 150.85 447.94 155.42 438.61 161.4 427.19 177.86 396.42 181.84 387.91 184.42 381.63 186.6 375.44 188.29 369.35 189.47 363.38 189.93 359.47 190.13 355.63 190.06 351.85 189.71 348.14 189.07 344.49 188.15 340.91 186.94 337.4 185.44 333.94 183.66 330.53 181.6 327.17 178 322.17 173.83 317.18 169.12 312.14 162.09 305.22 139.49 283.49 132.86 276.49 126.23 268.9 119.68 260.66 115.42 254.8 111.29 248.64 107.3 242.17 103.51 235.4 99.93 228.34 96.59 221 93.52 213.41 90.74 205.57 88.27 197.51 86.11 189.27 84.27 180.86 82.77 172.32 81.6 163.68 80.75 154.96 80.21 146.21 79.98 137.43 80.03 128.67 80.35 119.95 81.28 106.97 82.69 94.2 84.47 81.66 86.56 69.4 89.66 53.53 93.81 34.46 97.97 16.23"/>
      </g>
      <g class="cls-39">
        <polyline class="cls-2" points="175.36 455.2 180.12 445.76 186.84 433.38 207.34 396.62 212.08 386.9 215.2 379.67 217.87 372.52 220 365.48 221.1 360.86 221.92 356.33 222.45 351.88 222.68 347.54 222.6 343.31 222.2 339.2 221.49 335.22 220.46 331.38 219.12 327.67 217.47 324.1 215.51 320.67 213.26 317.36 210.73 314.18 207.92 311.09 203.21 306.62 197.94 302.27 192.18 297.97 181.59 290.61 167.63 280.86 160.32 275.36 152.92 269.3 147.97 264.91 143.06 260.2 138.23 255.17 133.49 249.8 128.9 244.08 124.49 238.01 120.29 231.59 116.33 224.82 112.65 217.73 109.28 210.33 106.24 202.63 103.55 194.68 101.23 186.5 99.28 178.11 97.72 169.57 96.54 160.89 95.73 152.12 95.29 143.3 95.19 134.45 95.43 125.6 95.97 116.79 96.79 108.04 97.86 99.38 99.88 86.57 102.29 74.05 104.99 61.83 108.89 46.06 114.96 23.51 116.96 16.27"/>
      </g>
      <g class="cls-42">
        <polyline class="cls-2" points="201.63 455.2 206.98 444.83 215.83 428.64 227.91 406.73 233.65 395.61 237.64 387.22 241.24 378.81 244.38 370.42 246.96 362.11 248.33 356.63 249.39 351.23 250.14 345.93 250.56 340.75 250.65 335.7 250.39 330.81 249.78 326.1 248.84 321.58 247.55 317.26 245.94 313.15 244 309.25 241.76 305.58 239.22 302.12 236.4 298.87 233.31 295.82 229.97 292.94 226.39 290.23 220.61 286.4 214.37 282.79 205.43 278.09 185.91 268.03 178.21 263.62 170.44 258.66 165.27 255 160.13 251.02 155.06 246.69 150.1 242 145.29 236.94 140.66 231.48 136.25 225.64 132.09 219.42 128.23 212.82 124.69 205.87 121.5 198.58 118.68 190.99 116.26 183.12 114.25 175.01 112.65 166.7 111.48 158.23 110.71 149.63 110.35 140.95 110.37 132.23 110.76 123.49 111.49 114.77 112.53 106.1 113.85 97.51 115.41 89.01 118.15 76.49 121.26 64.27 124.61 52.38 129.3 37.05 136.36 15.16"/>
      </g>
      <g class="cls-41">
        <polyline class="cls-2" points="227.78 451.95 235.15 437.43 252.21 404.26 258.08 391.72 262.13 382.18 265.75 372.56 267.87 366.12 269.72 359.7 271.28 353.3 272.52 346.95 273.43 340.68 273.98 334.52 274.16 328.5 273.96 322.64 273.4 316.97 272.46 311.52 271.15 306.31 269.48 301.36 267.47 296.68 265.14 292.29 262.5 288.19 259.56 284.38 256.36 280.87 252.91 277.63 249.24 274.65 245.35 271.93 241.28 269.42 234.84 266.01 228.07 262.92 218.6 259.07 201.11 252.16 193.4 248.75 185.65 244.86 180.5 241.94 175.39 238.71 170.35 235.15 165.42 231.23 160.63 226.94 156.01 222.25 151.61 217.16 147.45 211.67 143.58 205.78 140.02 199.51 136.81 192.87 133.98 185.89 131.55 178.6 129.53 171.02 127.93 163.21 126.77 155.2 126.04 147.03 125.74 138.73 125.84 130.36 126.34 121.94 127.2 113.52 128.39 105.12 129.9 96.78 131.67 88.52 134.76 76.32 138.26 64.39 142.04 52.77 147.32 37.77 156.61 12.86"/>
      </g>
      <g class="cls-9">
        <polyline class="cls-2" points="252.54 447.93 264.57 422.56 272.25 405.95 276.69 395.69 280.88 385.22 284.68 374.58 286.95 367.4 288.96 360.19 290.68 352.96 292.09 345.73 293.15 338.55 293.84 331.43 294.15 324.42 294.06 317.54 293.57 310.84 292.67 304.34 291.37 298.09 289.67 292.1 287.6 286.41 285.17 281.04 282.41 276.01 279.32 271.32 275.96 266.98 272.33 263 268.47 259.36 264.41 256.06 260.17 253.07 255.77 250.37 251.23 247.94 244.22 244.71 237.01 241.87 227.18 238.47 209.62 232.54 202.08 229.61 194.61 226.24 189.7 223.68 184.87 220.83 180.15 217.66 175.56 214.15 171.15 210.26 166.92 206 162.93 201.35 159.21 196.31 155.78 190.88 152.68 185.08 149.93 178.92 147.56 172.43 145.59 165.64 144.04 158.57 142.91 151.27 142.21 143.77 141.93 136.11 142.07 128.34 142.61 120.48 143.52 112.58 144.79 104.66 146.39 96.77 148.27 88.93 150.41 81.15 154.02 69.66 158 58.42 163.67 43.85 170.98 26.34 178.12 9.57"/>
      </g>
      <g class="cls-6">
        <polyline class="cls-2" points="275.62 444.01 291.52 406.14 295.74 395.16 299.72 383.92 303.33 372.43 305.47 364.65 307.36 356.81 308.95 348.92 310.22 341 311.14 333.1 311.67 325.24 311.81 317.47 311.53 309.81 310.83 302.31 309.7 295.01 308.15 287.94 306.18 281.14 303.81 274.65 301.07 268.5 297.97 262.7 294.54 257.27 290.81 252.23 286.82 247.58 282.6 243.32 278.18 239.43 273.59 235.92 268.87 232.75 264.04 229.9 259.13 227.34 251.66 223.97 244.12 221.04 234.06 217.58 216.73 211.71 209.52 208.87 202.51 205.64 197.98 203.21 193.58 200.51 189.33 197.52 185.27 194.22 181.41 190.58 177.79 186.6 174.42 182.26 171.34 177.57 168.57 172.54 166.14 167.17 164.07 161.48 162.38 155.49 161.08 149.24 160.18 142.74 159.68 136.04 159.59 129.16 159.9 122.15 160.59 115.03 161.65 107.85 163.06 100.62 164.78 93.39 166.8 86.18 170.28 75.44 174.23 64.85 178.51 54.45 184.55 40.91 193.78 21.34 201.2 5.65"/>
      </g>
      <g class="cls-13">
        <polyline class="cls-2" points="297.14 440.72 309.08 408.38 314.25 393.1 317.86 381.27 321.1 369.16 322.99 360.94 324.64 352.64 325.99 344.26 327.02 335.85 327.7 327.43 328 319.03 327.91 310.69 327.39 302.45 326.44 294.35 325.07 286.43 323.26 278.74 321.03 271.3 318.4 264.16 315.37 257.35 311.99 250.89 308.27 244.81 304.25 239.12 299.96 233.83 295.45 228.94 290.74 224.44 285.87 220.34 280.89 216.6 275.81 213.22 270.68 210.15 262.93 206.07 255.19 202.51 245.02 198.34 225.67 190.66 218.9 187.57 212.47 184.16 208.39 181.65 204.51 178.92 200.83 175.95 197.38 172.71 194.18 169.2 191.25 165.39 188.61 161.29 186.27 156.9 184.26 152.22 182.6 147.27 181.29 142.06 180.35 136.61 179.78 130.94 179.59 125.08 179.77 119.06 180.32 112.9 181.22 106.63 182.46 100.28 184.02 93.88 185.87 87.46 189.15 77.81 192.92 68.21 197.08 58.7 203.06 46.22 210.85 30.99 224.53 4.51 225.96 1.63"/>
      </g>
      <g class="cls-11">
        <polyline class="cls-2" points="317.39 438.42 326.81 408.94 331.39 393.31 334.59 381.2 337.46 368.77 339.9 356.07 341.22 347.48 342.26 338.81 342.99 330.09 343.38 321.35 343.4 312.63 343.04 303.94 342.27 295.35 341.09 286.88 339.49 278.57 337.48 270.46 335.06 262.59 332.25 255 329.06 247.71 325.52 240.76 321.65 234.16 317.5 227.94 313.09 222.1 308.45 216.64 303.64 211.58 298.68 206.89 293.62 202.56 288.48 198.58 283.3 194.92 275.53 189.96 267.84 185.55 257.85 180.3 239.37 170.79 233.14 167.18 227.35 163.35 223.77 160.64 220.43 157.76 217.34 154.71 214.52 151.46 211.98 148 209.74 144.32 207.81 140.43 206.19 136.32 204.91 132 203.96 127.48 203.36 122.76 203.1 117.88 203.18 112.83 203.6 107.65 204.35 102.35 205.42 96.95 206.79 91.47 208.44 85.94 211.4 77.57 214.86 69.16 218.73 60.76 224.36 49.62 231.84 35.84 246.77 8.75 252.12 -1.62"/>
      </g>
      <g class="cls-12">
        <polyline class="cls-2" points="336.78 437.31 344.85 407.52 348.75 391.75 351.46 379.53 353.87 367.01 355.88 354.2 356.96 345.54 357.78 336.79 358.32 327.98 358.55 319.13 358.46 310.28 358.02 301.46 357.21 292.69 356.02 284.01 354.46 275.47 352.51 267.08 350.19 258.9 347.5 250.95 344.46 243.25 341.09 235.85 337.41 228.76 333.46 221.99 329.26 215.57 324.84 209.5 320.25 203.78 315.52 198.41 310.68 193.38 305.77 188.67 298.36 182.19 290.97 176.33 281.34 169.31 255.8 151.31 250.54 146.96 245.83 142.49 243.02 139.4 240.48 136.22 238.23 132.91 236.28 129.47 234.62 125.91 233.28 122.2 232.25 118.36 231.54 114.38 231.15 110.27 231.06 106.04 231.29 101.7 231.82 97.25 232.64 92.72 233.74 88.1 235.88 81.06 238.54 73.91 241.67 66.68 245.17 59.4 250.29 49.64 258.53 34.95 269.64 15.26 276.18 2.83 278.39 -1.62"/>
      </g>
      <g class="cls-10">
        <polyline class="cls-2" points="355.77 437.35 363.27 403.94 366.44 388.2 368.6 376.04 370.5 363.59 372.04 350.89 373.14 337.98 373.58 329.28 373.77 320.53 373.69 311.76 373.31 302.99 372.61 294.25 371.6 285.57 370.27 276.97 368.6 268.5 366.6 260.17 364.28 252.01 361.65 244.06 358.72 236.34 355.51 228.87 352.05 221.67 348.36 214.76 344.47 208.14 340.41 201.82 336.21 195.81 331.9 190.1 325.31 182.08 318.67 174.7 312.07 167.88 303.53 159.57 284.62 141.44 279.91 136.4 275.74 131.41 272.15 126.41 270.09 123.05 268.31 119.64 266.81 116.18 265.6 112.67 264.67 109.09 264.04 105.44 263.68 101.73 263.61 97.95 263.81 94.11 264.28 90.2 265.45 84.23 267.15 78.14 269.32 71.95 271.91 65.67 275.88 57.16 281.48 46.35 299.49 12.65 303.99 3.27 306.19 -1.62"/>
      </g>
      <g class="cls-7">
        <polyline class="cls-2" points="374.77 438.35 381.4 401.9 383.89 386.47 386.1 370.57 387.47 358.35 388.52 345.93 389.19 333.32 389.41 320.6 389.12 307.82 388.62 299.3 387.87 290.8 386.86 282.36 385.58 273.99 384.03 265.72 382.21 257.57 380.13 249.57 377.81 241.74 375.24 234.09 372.46 226.66 369.47 219.44 366.3 212.46 361.26 202.45 355.96 193.01 350.49 184.13 344.94 175.82 337.58 165.54 327.05 151.67 317.69 139.25 312.35 131.55 308.89 125.97 305.95 120.52 303.55 115.13 301.7 109.78 300.77 106.22 300.1 102.65 299.66 99.07 299.47 93.67 299.79 88.21 300.59 82.69 301.85 77.11 303.51 71.45 305.52 65.71 308.66 57.93 313.14 47.97 327.85 16.23 332.49 4.93 334.96 -1.62"/>
      </g>
      <g class="cls-4">
        <polyline class="cls-2" points="394.12 440.03 400.19 397.4 402.47 378.56 403.98 363.05 404.85 351.2 405.44 339.2 405.7 327.07 405.6 314.86 405.08 302.63 404.12 290.43 402.71 278.32 400.84 266.37 398.5 254.65 395.74 243.21 392.57 232.1 389.04 221.37 385.22 211.07 381.16 201.22 376.93 191.82 371.16 180.03 363.99 166.41 348.82 138.14 344.87 129.78 342.37 123.76 340.3 117.91 338.67 112.19 337.48 106.57 336.75 101.02 336.44 95.51 336.55 90.02 337.06 84.52 337.92 78.99 339.11 73.42 341.13 65.9 343.55 58.24 347.73 46.41 356.8 21.23 360.45 10.05 363.86 -1.62"/>
      </g>
      <g class="cls-8">
        <polyline class="cls-2" points="414.04 442.04 419.23 393.96 420.84 375.83 421.88 360.99 422.59 345.91 422.91 330.62 422.83 319.08 422.47 307.52 421.78 295.96 420.77 284.48 419.42 273.1 417.74 261.88 415.74 250.86 413.45 240.09 410.89 229.61 408.11 219.45 404.13 206.44 399.95 194.09 394.66 179.58 381.4 144.1 378.49 135.12 376.12 126.53 374.72 120.3 373.65 114.21 372.92 108.24 372.51 102.35 372.41 96.52 372.62 90.72 373.33 82.99 374.47 75.21 375.97 67.34 378.24 57.3 382.99 38.49 387.92 18.51 391 4.49 392.21 -1.62"/>
      </g>
      <g class="cls-5">
        <polyline class="cls-2" points="434.67 444.11 439.05 387.73 440.26 366.8 440.93 349.01 441.15 334.61 441.05 320.12 440.58 305.62 439.72 291.17 438.44 276.86 436.77 262.77 434.72 248.98 432.34 235.57 429.7 222.58 426.15 207.03 421.74 189.43 413.04 155.17 410.44 143.23 408.78 134.07 407.51 125.19 406.66 116.54 406.23 108.04 406.18 99.65 406.5 91.29 407.14 82.93 408.33 72.38 410.18 59.49 414.21 34.86 417.55 13.57 419.64 -1.62"/>
      </g>
      <g class="cls-28">
        <polyline class="cls-2" points="455.36 249.36 453.46 234.98 450.67 216.66 445.85 188.01 441.98 164.23 439.94 149.29 438.67 137.3 437.82 125.62 437.4 114.16 437.39 102.82 437.75 91.51 438.59 77.86 439.99 61.7 443.87 23.15 446.11 -1.62"/>
      </g>
      <g class="cls-29">
        <polyline class="cls-2" points="204.3 455.2 218.68 453.29 237.01 450.5 265.67 445.69 289.46 441.82 304.4 439.78 316.39 438.51 328.08 437.66 339.55 437.24 350.89 437.23 362.2 437.59 375.85 438.43 392.02 439.83 430.59 443.71 455.36 445.94"/>
      </g>
      <g class="cls-30">
        <polyline class="cls-2" points="9.48 434.51 65.87 438.89 86.82 440.1 104.61 440.77 119.01 440.99 133.5 440.89 148.01 440.42 162.47 439.56 176.78 438.28 190.88 436.61 204.67 434.56 218.09 432.18 231.08 429.54 246.64 425.99 264.25 421.59 298.52 412.89 310.47 410.29 319.63 408.63 328.51 407.37 337.16 406.52 345.66 406.08 354.06 406.03 362.42 406.35 370.79 406.99 381.34 408.18 394.24 410.03 418.87 414.06 440.17 417.4 455.36 419.49"/>
      </g>
      <g class="cls-31">
        <polyline class="cls-2" points="11.54 413.89 59.64 419.08 77.78 420.69 92.62 421.72 107.71 422.44 123 422.75 134.55 422.68 146.12 422.31 157.67 421.63 169.17 420.61 180.55 419.27 191.77 417.59 202.79 415.59 213.56 413.3 224.05 410.74 234.21 407.96 247.22 403.98 259.59 399.81 274.1 394.52 309.6 381.26 318.58 378.36 327.17 375.99 333.4 374.59 339.49 373.52 345.46 372.78 351.36 372.37 357.19 372.28 362.99 372.49 370.73 373.19 378.51 374.33 386.38 375.83 396.42 378.1 415.24 382.85 435.23 387.77 449.25 390.85 455.36 392.07"/>
      </g>
      <g class="cls-32">
        <polyline class="cls-2" points="13.56 393.97 56.2 400.05 75.05 402.32 90.56 403.83 102.41 404.7 114.43 405.29 126.56 405.56 138.77 405.45 151.01 404.93 163.21 403.98 175.32 402.56 187.27 400.69 199 398.36 210.45 395.59 221.56 392.43 232.29 388.9 242.6 385.08 252.46 381.02 261.85 376.79 273.65 371.03 287.27 363.86 315.56 348.7 323.92 344.75 329.94 342.25 335.79 340.18 341.51 338.55 347.13 337.36 352.69 336.62 358.2 336.32 363.69 336.43 369.2 336.93 374.72 337.8 380.29 338.98 387.82 341 395.48 343.43 407.32 347.6 432.51 356.67 443.69 360.32 455.36 363.73"/>
      </g>
      <g class="cls-33">
        <polyline class="cls-2" points="15.23 374.63 51.7 381.26 67.13 383.75 83.04 385.96 95.26 387.33 107.69 388.38 120.3 389.05 133.03 389.27 145.82 388.98 154.34 388.48 162.84 387.73 171.29 386.72 179.66 385.44 187.93 383.89 196.08 382.07 204.09 380 211.92 377.67 219.57 375.11 227.01 372.32 234.22 369.33 241.21 366.17 251.22 361.13 260.67 355.83 269.54 350.36 277.86 344.81 288.14 337.46 302.02 326.94 314.44 317.58 322.15 312.24 327.72 308.78 333.18 305.84 338.57 303.44 343.92 301.59 347.49 300.66 351.06 299.99 354.64 299.55 360.04 299.36 365.5 299.68 371.02 300.48 376.61 301.74 382.27 303.4 388.01 305.41 395.79 308.55 405.76 313.03 437.51 327.73 448.82 332.37 455.36 334.83"/>
      </g>
      <g class="cls-26">
        <polyline class="cls-2" points="16.24 355.64 49.66 363.13 65.4 366.3 77.57 368.47 90.02 370.37 102.73 371.91 115.65 373 124.35 373.45 133.1 373.64 141.87 373.55 150.64 373.17 159.39 372.48 168.07 371.47 176.67 370.13 185.15 368.46 193.48 366.47 201.64 364.15 209.59 361.52 217.31 358.59 224.79 355.38 231.99 351.92 238.91 348.24 245.53 344.35 251.85 340.28 257.86 336.08 263.58 331.78 271.59 325.19 278.98 318.55 285.8 311.96 294.12 303.42 312.26 284.52 317.3 279.81 322.29 275.64 327.29 272.05 330.65 269.99 334.06 268.21 337.52 266.71 341.04 265.5 344.62 264.58 348.26 263.94 351.98 263.59 355.76 263.51 359.6 263.72 363.51 264.18 369.48 265.35 375.58 267.05 381.77 269.22 388.06 271.81 396.56 275.78 407.37 281.38 441.09 299.38 450.47 303.88 455.36 306.08"/>
      </g>
      <g class="cls-24">
        <polyline class="cls-2" points="16.28 336.66 46.08 344.72 61.86 348.62 74.07 351.33 86.6 353.74 99.41 355.75 108.08 356.83 116.83 357.65 125.65 358.19 134.49 358.42 143.35 358.33 152.18 357.88 160.95 357.08 169.63 355.89 178.18 354.33 186.56 352.39 194.75 350.06 202.71 347.38 210.4 344.34 217.81 340.97 224.91 337.29 231.67 333.34 238.1 329.14 244.17 324.72 249.89 320.13 255.27 315.4 260.3 310.57 265 305.66 271.49 298.25 277.35 290.86 284.37 281.24 302.38 255.71 306.73 250.45 311.2 245.74 314.29 242.93 317.48 240.39 320.79 238.14 324.22 236.19 327.79 234.54 331.5 233.2 335.34 232.17 339.32 231.46 343.43 231.06 347.67 230.98 352.01 231.21 356.46 231.74 360.99 232.56 365.61 233.66 372.65 235.79 379.81 238.46 387.04 241.58 394.33 245.08 404.09 250.2 418.78 258.44 438.48 269.54 450.91 276.08 455.36 278.29"/>
      </g>
      <g class="cls-27">
        <polyline class="cls-2" points="15.17 317.27 44.66 326.69 60.29 331.27 72.41 334.47 84.84 337.34 97.54 339.77 106.14 341.09 114.81 342.13 123.53 342.86 132.28 343.25 141.01 343.27 149.69 342.91 158.29 342.14 166.76 340.97 175.08 339.37 183.19 337.36 191.06 334.94 198.65 332.13 205.94 328.94 212.9 325.4 219.5 321.54 225.72 317.38 231.57 312.97 237.02 308.34 242.09 303.53 246.78 298.57 251.11 293.51 255.09 288.37 258.76 283.2 263.71 275.43 268.13 267.74 273.38 257.75 282.89 239.29 286.51 233.05 290.33 227.27 293.05 223.69 295.92 220.35 298.98 217.26 302.23 214.44 305.69 211.91 309.37 209.66 313.26 207.73 317.37 206.12 321.69 204.83 326.22 203.89 330.94 203.28 335.82 203.02 340.87 203.11 346.06 203.53 351.36 204.28 356.76 205.34 362.24 206.71 367.77 208.36 376.14 211.32 384.55 214.78 392.96 218.65 404.11 224.28 417.9 231.76 444.99 246.68 455.36 252.02"/>
      </g>
      <g class="cls-25">
        <polyline class="cls-2" points="12.87 297.03 45.21 308.97 60.5 314.14 72.33 317.74 84.45 320.98 92.67 322.88 100.98 324.52 109.36 325.87 117.77 326.9 126.2 327.58 134.6 327.89 142.94 327.79 151.19 327.27 159.29 326.33 167.21 324.95 174.91 323.14 182.34 320.92 189.49 318.28 196.3 315.26 202.76 311.87 208.85 308.16 214.54 304.14 219.83 299.85 224.73 295.34 229.22 290.63 233.32 285.77 237.06 280.78 240.45 275.71 243.52 270.58 247.6 262.83 251.16 255.1 255.33 244.94 263.01 225.59 266.11 218.82 269.52 212.39 272.03 208.32 274.75 204.43 277.73 200.76 280.97 197.31 284.49 194.11 288.29 191.18 292.39 188.54 296.79 186.2 301.47 184.2 306.42 182.53 311.63 181.22 317.09 180.28 322.76 179.71 328.62 179.52 334.65 179.7 340.81 180.25 347.08 181.15 353.42 182.39 359.83 183.95 366.26 185.81 375.91 189.08 385.51 192.85 395.02 197.01 407.5 202.98 422.74 210.77 449.23 224.45 452.11 225.88"/>
      </g>
      <g class="cls-20">
        <polyline class="cls-2" points="9.57 275.52 47.46 291.41 58.44 295.64 69.69 299.61 81.18 303.22 88.96 305.36 96.81 307.25 104.7 308.84 112.62 310.11 120.52 311.02 128.38 311.56 136.16 311.7 143.82 311.42 151.33 310.72 158.63 309.59 165.7 308.04 172.5 306.07 178.99 303.7 185.15 300.96 190.95 297.86 196.38 294.43 201.42 290.7 206.08 286.72 210.34 282.5 214.22 278.08 217.74 273.5 220.91 268.78 223.76 263.95 226.32 259.04 229.69 251.57 232.62 244.03 236.09 233.98 241.96 216.65 244.8 209.44 248.03 202.44 250.46 197.91 253.16 193.51 256.15 189.27 259.46 185.2 263.1 181.35 267.08 177.72 271.42 174.36 276.11 171.28 281.15 168.51 286.52 166.08 292.21 164.01 298.2 162.32 304.45 161.02 310.95 160.12 317.66 159.62 324.54 159.54 331.55 159.84 338.67 160.54 345.86 161.6 353.08 163 360.32 164.72 367.54 166.74 378.28 170.22 388.87 174.16 399.28 178.45 412.82 184.48 432.39 193.71 448.09 201.13"/>
      </g>
      <g class="cls-14">
        <polyline class="cls-2" points="5.66 252.45 31.03 264.47 47.65 272.15 57.91 276.59 68.38 280.77 79.03 284.58 86.21 286.84 93.43 288.86 100.66 290.58 107.89 291.98 115.07 293.04 122.19 293.74 129.21 294.04 136.09 293.95 142.79 293.46 149.29 292.56 155.55 291.26 161.54 289.57 167.23 287.5 172.6 285.07 177.64 282.3 182.33 279.22 186.66 275.86 190.65 272.23 194.29 268.38 197.59 264.31 200.58 260.07 203.28 255.67 205.72 251.14 208.95 244.13 211.78 236.93 215.19 227.09 221.12 209.55 224.05 202.01 227.43 194.54 229.99 189.63 232.83 184.8 236 180.08 239.52 175.5 243.4 171.08 247.67 166.86 252.32 162.88 257.36 159.15 262.79 155.72 268.6 152.62 274.75 149.88 281.25 147.51 288.04 145.54 295.11 143.99 302.42 142.86 309.92 142.16 317.58 141.88 325.36 142.02 333.22 142.55 341.13 143.47 349.04 144.74 356.94 146.33 364.79 148.22 372.56 150.36 384.06 153.97 395.31 157.94 409.88 163.61 427.39 170.91 444.17 178.06"/>
      </g>
      <g class="cls-15">
        <polyline class="cls-2" points="1.63 227.7 16.15 235.06 49.34 252.12 61.88 257.99 71.43 262.04 81.05 265.65 87.49 267.77 93.92 269.63 100.32 271.18 106.67 272.43 112.94 273.33 119.1 273.88 125.13 274.06 130.99 273.86 136.66 273.3 142.11 272.36 147.33 271.05 152.28 269.38 156.96 267.38 161.35 265.04 165.45 262.4 169.26 259.47 172.78 256.27 176.02 252.82 178.99 249.15 181.72 245.26 184.23 241.19 187.64 234.76 190.73 227.99 194.58 218.52 201.49 201.04 204.91 193.33 208.8 185.58 211.72 180.43 214.95 175.32 218.51 170.29 222.43 165.36 226.72 160.57 231.41 155.96 236.51 151.55 242 147.4 247.89 143.53 254.17 139.97 260.81 136.76 267.79 133.93 275.08 131.5 282.66 129.48 290.47 127.89 298.49 126.73 306.66 126 314.96 125.69 323.34 125.8 331.76 126.29 340.18 127.15 348.58 128.35 356.93 129.85 365.19 131.62 377.4 134.71 389.33 138.21 400.96 141.99 415.96 147.27 440.88 156.55"/>
      </g>
      <g class="cls-16">
        <polyline class="cls-2" points="-1.62 201.56 8.76 206.9 24.94 215.75 46.86 227.83 57.99 233.56 66.39 237.55 74.8 241.16 83.19 244.29 91.51 246.87 96.99 248.23 102.39 249.3 107.69 250.05 112.87 250.47 117.92 250.56 122.81 250.3 127.52 249.69 132.05 248.75 136.37 247.46 140.48 245.85 144.38 243.92 148.05 241.67 151.51 239.14 154.76 236.32 157.82 233.23 160.7 229.89 163.41 226.31 167.24 220.53 170.86 214.29 175.55 205.36 185.62 185.84 190.03 178.15 194.99 170.38 198.65 165.21 202.63 160.07 206.96 155 211.65 150.05 216.72 145.24 222.18 140.61 228.02 136.2 234.25 132.04 240.85 128.18 247.8 124.64 255.09 121.45 262.69 118.64 270.56 116.22 278.67 114.21 286.98 112.61 295.46 111.43 304.06 110.67 312.74 110.31 321.47 110.33 330.21 110.72 338.93 111.44 347.6 112.48 356.2 113.8 364.7 115.37 377.22 118.11 389.45 121.21 401.34 124.57 416.68 129.25 438.58 136.31"/>
      </g>
      <g class="cls-17">
        <polyline class="cls-2" points="-1.62 175.29 7.82 180.06 20.21 186.77 56.98 207.26 66.7 212 73.94 215.12 81.09 217.79 88.14 219.92 92.75 221.02 97.29 221.84 101.73 222.37 106.08 222.6 110.31 222.52 114.42 222.12 118.4 221.41 122.25 220.38 125.95 219.04 129.52 217.39 132.96 215.44 136.26 213.19 139.45 210.65 142.54 207.84 147.01 203.13 151.36 197.87 155.67 192.11 163.03 181.52 172.78 167.57 178.28 160.26 184.35 152.86 188.74 147.92 193.45 143.01 198.48 138.18 203.85 133.45 209.57 128.86 215.65 124.44 222.07 120.24 228.84 116.29 235.93 112.61 243.34 109.24 251.04 106.2 258.99 103.52 267.18 101.19 275.57 99.25 284.12 97.68 292.79 96.5 301.57 95.69 310.4 95.25 319.25 95.16 328.1 95.39 336.91 95.93 345.66 96.75 354.33 97.83 367.14 99.84 379.67 102.25 391.89 104.96 407.67 108.86 430.23 114.92 437.46 116.92"/>
      </g>
      <g class="cls-18">
        <polyline class="cls-2" points="-1.62 147.5 5.64 150.8 14.97 155.36 26.4 161.35 57.18 177.8 65.69 181.77 71.97 184.36 78.17 186.53 84.26 188.23 90.23 189.4 94.14 189.86 97.99 190.06 101.77 189.99 105.48 189.64 109.13 189 112.71 188.08 116.22 186.87 119.68 185.37 123.09 183.59 126.46 181.53 131.46 177.94 136.45 173.77 141.49 169.06 148.41 162.03 170.16 139.44 177.16 132.82 184.75 126.18 192.99 119.64 198.85 115.38 205.02 111.25 211.49 107.27 218.26 103.47 225.32 99.89 232.66 96.56 240.26 93.49 248.1 90.71 256.16 88.23 264.41 86.07 272.82 84.24 281.36 82.74 290.01 81.57 298.72 80.72 307.49 80.18 316.26 79.95 325.03 80 333.75 80.32 346.73 81.25 359.51 82.66 372.06 84.44 384.32 86.53 400.2 89.63 419.27 93.78 437.51 97.94"/>
      </g>
      <g class="cls-21">
        <polyline class="cls-2" points="-1.62 118.75 7.22 122.11 18.45 126.81 31.44 132.73 57.95 145.03 65.73 148.17 71.47 150.18 77.14 151.84 82.72 153.1 88.24 153.9 93.7 154.22 99.11 154.02 102.69 153.59 106.26 152.92 109.82 151.99 115.17 150.14 120.56 147.74 126.02 144.8 131.6 141.34 139.31 136 149.57 128.3 168.09 114.3 178.59 106.91 187.1 101.38 196.16 95.96 205.8 90.73 212.54 87.41 219.52 84.24 226.74 81.26 234.18 78.47 241.82 75.91 249.66 73.58 257.66 71.51 265.81 69.69 274.09 68.14 282.46 66.86 290.91 65.85 299.4 65.1 307.93 64.6 320.72 64.31 333.45 64.53 346.05 65.2 358.48 66.25 370.7 67.62 386.61 69.83 405.83 72.97 431.45 77.63 438.51 78.95"/>
      </g>
      <g class="cls-22">
        <polyline class="cls-2" points="-1.62 89.85 7.77 92.56 19.03 96.17 32 100.7 60.19 110.79 67.82 113.12 75.31 115.03 80.87 116.11 86.38 116.86 91.88 117.23 97.38 117.21 102.9 116.76 108.48 115.87 114.13 114.54 119.89 112.76 125.79 110.55 131.88 107.91 140.34 103.79 151.64 97.81 177.27 84 188.87 78.22 198.1 73.96 207.81 69.83 217.97 65.92 228.56 62.29 239.55 59 250.89 56.1 262.53 53.62 274.42 51.59 286.48 50.02 298.66 48.92 310.89 48.26 323.12 48.02 335.29 48.16 347.34 48.65 359.26 49.43 374.85 50.85 390.08 52.58 412.16 55.53 440.19 59.61"/>
      </g>
      <g class="cls-23">
        <polyline class="cls-2" points="-1.62 61.51 11.57 64.23 25.32 67.43 47 72.91 63.38 76.88 73.28 78.9 81.08 80.14 88.82 80.96 94.62 81.26 100.44 81.27 106.31 80.97 112.25 80.35 118.3 79.39 124.48 78.1 132.99 75.87 141.86 73.09 153.59 68.95 176.87 60.11 194.16 53.77 206.52 49.6 219.53 45.62 229.7 42.84 240.18 40.28 250.95 37.99 261.97 35.99 273.2 34.31 284.58 32.96 296.07 31.95 307.63 31.27 319.2 30.9 330.74 30.83 346.03 31.14 361.13 31.86 375.97 32.89 394.1 34.5 418.65 37.07 442.2 39.69"/>
      </g>
      <g class="cls-19">
        <polyline class="cls-2" points="-1.62 34.09 13.57 36.18 32.56 39.14 68.14 44.83 78.75 46.16 89.24 47.1 97.59 47.5 105.98 47.55 114.44 47.21 123.05 46.47 131.87 45.3 140.96 43.74 152.79 41.25 167.81 37.6 213.24 26.14 229.1 22.69 242.31 20.17 255.93 17.95 269.88 16.08 284.1 14.61 298.49 13.54 312.98 12.87 327.49 12.59 341.95 12.66 359.84 13.17 377.46 14.04 398.15 15.41 431.39 18.03 444.27 19.07"/>
      </g>
      <g class="cls-34">
        <polyline class="cls-2" points="-1.62 7.63 20.66 9.63 82.46 15.47 96.07 16.17 107.38 16.39 118.77 16.22 130.31 15.63 142.11 14.61 154.26 13.18 169.42 10.97 190.84 7.42 222.76 2.12 241.35 -.58 249.45 -1.62"/>
      </g>
      <line class="cls-3" x1="2.33" y1="451.25" x2="2.33" y2="2.33"/>
      <line class="cls-3" x1="451.41" y1="451.25" x2="451.41" y2="2.33"/>
      <line class="cls-3" x1="2.33" y1="451.25" x2="451.41" y2="451.25"/>
      <line class="cls-3" x1="2.33" y1="2.33" x2="451.41" y2="2.33"/>
    </g>
  </g>
</svg>